<svg width="160" height="72" viewBox="0 0 160 72" fill="none" xmlns="http://www.w3.org/2000/svg">
<path d="M95.5861 5.49189L78.6935 70H59.5855L49.2469 27.5459L38.539 70H19.431L3 5.49189H19.8926L29.2158 52.4487L40.7544 5.49189H58.1086L69.1857 52.4487L78.6012 5.49189H95.5861Z" fill="#FFD43E"/>
<path d="M135.43 70L119.738 48.4973V70H103.953V2H119.738V39.5838L135.338 18.7243H154.815L133.4 44.4541L155 70H135.43Z" fill="white"/>
<path d="M96.5535 5.74522L96.8817 4.49189H95.5861H78.6012H77.7818L77.6207 5.29529L69.1064 47.7574L59.0819 5.26229L58.9001 4.49189H58.1086H40.7544H39.9704L39.7833 5.25326L29.3195 47.8361L20.8734 5.29714L20.7135 4.49189H19.8926H3H1.71336L2.03094 5.73872L18.462 70.2468L18.6538 71H19.431H38.539H39.3181L39.5087 70.2446L49.2299 31.7024L58.6139 70.2366L58.7998 71H59.5855H78.6935H79.4654L79.6609 70.2533L96.5535 5.74522ZM134.623 70.5895L134.922 71H135.43H155H157.155L155.764 69.3543L134.705 44.449L155.584 19.3641L156.949 17.7243H154.815H135.338H134.837L134.537 18.1254L120.738 36.577V2V1H119.738H103.953H102.953V2V70V71H103.953H119.738H120.738V70V51.5639L134.623 70.5895Z" stroke="black" stroke-width="2"/>
</svg>
