<svg width="17" height="15" viewBox="0 0 17 15" fill="none" xmlns="http://www.w3.org/2000/svg">
<path d="M0.607143 2.7551H16.3929C16.7282 2.7551 17 2.48101 17 2.14286V0.612245C17 0.274094 16.7282 0 16.3929 0H0.607143C0.27181 0 0 0.274094 0 0.612245V2.14286C0 2.48101 0.27181 2.7551 0.607143 2.7551ZM0.607143 8.87755H16.3929C16.7282 8.87755 17 8.60346 17 8.26531V6.73469C17 6.39654 16.7282 6.12245 16.3929 6.12245H0.607143C0.27181 6.12245 0 6.39654 0 6.73469V8.26531C0 8.60346 0.27181 8.87755 0.607143 8.87755ZM0.607143 15H16.3929C16.7282 15 17 14.7259 17 14.3878V12.8571C17 12.519 16.7282 12.2449 16.3929 12.2449H0.607143C0.27181 12.2449 0 12.519 0 12.8571V14.3878C0 14.7259 0.27181 15 0.607143 15Z" fill="white"/>
</svg>
